<svg xmlns:xlink="http://www.w3.org/1999/xlink" xmlns="http://www.w3.org/2000/svg" fill="none" viewBox="0 0 512 512" height="512" width="512">
<g clip-path="url(#clip0_962_197)">
<path fill="#0CC7CF" d="M151.816 305.948H92.0447C89.4419 305.948 86.9458 304.918 85.1053 303.084C83.2649 301.25 82.231 298.762 82.231 296.168C82.231 294.884 82.4849 293.613 82.9782 292.427C83.4715 291.241 84.1946 290.164 85.106 289.256C86.0174 288.349 87.0994 287.63 88.29 287.139C89.4806 286.649 90.7565 286.397 92.0447 286.399H152.102C161.422 286.399 169.468 279.277 169.896 269.989C170.006 267.664 169.641 265.34 168.824 263.158C168.007 260.977 166.755 258.984 165.143 257.298C163.531 255.613 161.593 254.271 159.446 253.354C157.299 252.436 154.987 251.962 152.651 251.96H113.308C110.705 251.96 108.209 250.93 106.368 249.096C104.528 247.262 103.494 244.774 103.494 242.18C103.494 239.586 104.528 237.099 106.368 235.265C108.209 233.43 110.705 232.4 113.308 232.4H152.651C157.585 232.405 162.469 233.396 167.013 235.314C171.557 237.232 175.669 240.039 179.107 243.567C182.544 247.096 185.237 251.275 187.026 255.858C188.815 260.442 189.664 265.336 189.524 270.252C188.953 290.272 171.916 305.948 151.816 305.948Z"></path>
<path fill="#F9286E" d="M149.786 278.73H112.111C92.0117 278.73 74.9749 263.053 74.4041 243.023C74.2662 238.107 75.1183 233.213 76.9102 228.631C78.7021 224.049 81.3974 219.871 84.8368 216.344C88.2762 212.818 92.3899 210.014 96.935 208.099C101.48 206.183 106.364 205.195 111.299 205.193H171.894C173.182 205.193 174.458 205.446 175.648 205.938C176.838 206.429 177.919 207.15 178.829 208.058C179.74 208.966 180.462 210.045 180.954 211.231C181.446 212.418 181.698 213.689 181.697 214.973C181.697 216.256 181.443 217.526 180.951 218.712C180.458 219.897 179.736 220.974 178.826 221.881C177.915 222.788 176.835 223.508 175.645 223.999C174.456 224.49 173.181 224.742 171.894 224.742H111.826C102.517 224.742 94.4597 231.864 94.0315 241.152C93.9247 243.478 94.2922 245.802 95.1117 247.983C95.9313 250.163 97.1859 252.156 98.7998 253.84C100.414 255.524 102.353 256.865 104.502 257.781C106.65 258.697 108.962 259.169 111.299 259.17H149.807C152.41 259.17 154.906 260.2 156.747 262.034C158.587 263.868 159.621 266.356 159.621 268.95C159.621 270.236 159.367 271.51 158.872 272.698C158.378 273.886 157.653 274.965 156.739 275.873C155.825 276.782 154.741 277.502 153.548 277.992C152.355 278.482 151.076 278.733 149.786 278.73Z"></path>
<path fill="black" d="M216.167 242.071V202.56H232.953C242.093 202.56 246.663 209.199 246.663 222.477C246.663 225.428 246.393 228.091 245.854 230.466C245.314 232.805 244.504 234.856 243.425 236.619C242.345 238.382 240.906 239.732 239.107 240.667C237.343 241.603 235.292 242.071 232.953 242.071H216.167ZM223.723 235.324H232.36C236.858 235.324 239.107 231.023 239.107 222.423C239.107 220.336 238.999 218.537 238.783 217.026C238.567 215.478 238.279 214.219 237.919 213.247C237.559 212.24 237.092 211.448 236.516 210.872C235.94 210.261 235.31 209.847 234.627 209.631C233.979 209.379 233.223 209.253 232.36 209.253H223.723V235.324ZM252.93 222.585C252.93 220.75 252.984 219.059 253.092 217.511C253.236 215.964 253.434 214.579 253.686 213.355C253.974 212.132 254.28 211.034 254.604 210.063C254.964 209.055 255.395 208.192 255.899 207.472C256.403 206.716 256.907 206.068 257.41 205.529C257.95 204.953 258.58 204.485 259.3 204.125C260.019 203.73 260.703 203.424 261.351 203.208C262.034 202.956 262.808 202.776 263.672 202.668C264.535 202.524 265.345 202.434 266.101 202.398C266.892 202.326 267.792 202.29 268.799 202.29C270.095 202.29 271.21 202.326 272.146 202.398C273.117 202.47 274.125 202.632 275.169 202.884C276.248 203.1 277.166 203.424 277.921 203.855C278.677 204.287 279.433 204.845 280.188 205.529C280.98 206.176 281.628 207.022 282.131 208.066C282.635 209.073 283.085 210.261 283.481 211.628C283.877 212.959 284.165 214.561 284.345 216.432C284.56 218.267 284.668 220.318 284.668 222.585C284.668 225.032 284.524 227.227 284.237 229.17C283.985 231.077 283.643 232.733 283.211 234.136C282.779 235.503 282.185 236.691 281.43 237.698C280.71 238.67 279.936 239.462 279.109 240.073C278.317 240.649 277.346 241.117 276.194 241.477C275.043 241.801 273.891 242.017 272.74 242.125C271.624 242.232 270.311 242.286 268.799 242.286C267.468 242.286 266.298 242.25 265.291 242.178C264.319 242.107 263.294 241.963 262.214 241.747C261.171 241.531 260.271 241.225 259.516 240.829C258.76 240.397 258.004 239.858 257.249 239.21C256.493 238.526 255.863 237.698 255.359 236.727C254.856 235.719 254.406 234.568 254.01 233.272C253.65 231.941 253.38 230.394 253.2 228.63C253.02 226.831 252.93 224.816 252.93 222.585ZM260.487 222.585C260.487 224.816 260.559 226.651 260.703 228.091C260.847 229.494 261.081 230.7 261.405 231.707C261.765 232.715 262.286 233.47 262.97 233.974C263.654 234.478 264.427 234.838 265.291 235.054C266.191 235.234 267.36 235.324 268.799 235.324C271.03 235.324 272.704 235 273.819 234.352C274.935 233.704 275.762 232.481 276.302 230.682C276.842 228.846 277.112 226.148 277.112 222.585C277.112 220.534 277.04 218.789 276.896 217.349C276.788 215.874 276.572 214.651 276.248 213.679C275.924 212.672 275.564 211.88 275.169 211.304C274.809 210.728 274.287 210.297 273.603 210.009C272.92 209.685 272.218 209.487 271.498 209.415C270.814 209.307 269.915 209.253 268.799 209.253C267.864 209.253 267.09 209.289 266.478 209.361C265.903 209.397 265.273 209.505 264.589 209.685C263.942 209.865 263.42 210.153 263.024 210.548C262.664 210.908 262.286 211.412 261.89 212.06C261.531 212.708 261.261 213.517 261.081 214.489C260.901 215.424 260.757 216.558 260.649 217.889C260.541 219.221 260.487 220.786 260.487 222.585ZM291.356 234.406V202.56H298.913V232.301C298.913 232.985 298.985 233.542 299.128 233.974C299.308 234.37 299.596 234.64 299.992 234.784C300.424 234.928 300.766 235.018 301.018 235.054C301.27 235.09 301.683 235.108 302.259 235.108H315.807V242.071H299.56C294.091 242.071 291.356 239.516 291.356 234.406ZM321.478 222.585C321.478 220.75 321.532 219.059 321.64 217.511C321.784 215.964 321.982 214.579 322.234 213.355C322.521 212.132 322.827 211.034 323.151 210.063C323.511 209.055 323.943 208.192 324.447 207.472C324.95 206.716 325.454 206.068 325.958 205.529C326.498 204.953 327.127 204.485 327.847 204.125C328.567 203.73 329.251 203.424 329.898 203.208C330.582 202.956 331.356 202.776 332.219 202.668C333.083 202.524 333.892 202.434 334.648 202.398C335.44 202.326 336.339 202.29 337.347 202.29C338.642 202.29 339.758 202.326 340.693 202.398C341.665 202.47 342.673 202.632 343.716 202.884C344.796 203.1 345.713 203.424 346.469 203.855C347.225 204.287 347.98 204.845 348.736 205.529C349.528 206.176 350.175 207.022 350.679 208.066C351.183 209.073 351.633 210.261 352.028 211.628C352.424 212.959 352.712 214.561 352.892 216.432C353.108 218.267 353.216 220.318 353.216 222.585C353.216 225.032 353.072 227.227 352.784 229.17C352.532 231.077 352.19 232.733 351.759 234.136C351.327 235.503 350.733 236.691 349.977 237.698C349.258 238.67 348.484 239.462 347.656 240.073C346.865 240.649 345.893 241.117 344.742 241.477C343.59 241.801 342.439 242.017 341.287 242.125C340.172 242.232 338.858 242.286 337.347 242.286C336.016 242.286 334.846 242.25 333.838 242.178C332.867 242.107 331.841 241.963 330.762 241.747C329.718 241.531 328.819 241.225 328.063 240.829C327.307 240.397 326.552 239.858 325.796 239.21C325.04 238.526 324.411 237.698 323.907 236.727C323.403 235.719 322.953 234.568 322.557 233.272C322.198 231.941 321.928 230.394 321.748 228.63C321.568 226.831 321.478 224.816 321.478 222.585ZM329.035 222.585C329.035 224.816 329.107 226.651 329.251 228.091C329.394 229.494 329.628 230.7 329.952 231.707C330.312 232.715 330.834 233.47 331.518 233.974C332.201 234.478 332.975 234.838 333.838 235.054C334.738 235.234 335.908 235.324 337.347 235.324C339.578 235.324 341.251 235 342.367 234.352C343.482 233.704 344.31 232.481 344.85 230.682C345.389 228.846 345.659 226.148 345.659 222.585C345.659 220.534 345.587 218.789 345.443 217.349C345.335 215.874 345.119 214.651 344.796 213.679C344.472 212.672 344.112 211.88 343.716 211.304C343.356 210.728 342.835 210.297 342.151 210.009C341.467 209.685 340.765 209.487 340.046 209.415C339.362 209.307 338.462 209.253 337.347 209.253C336.411 209.253 335.638 209.289 335.026 209.361C334.45 209.397 333.82 209.505 333.137 209.685C332.489 209.865 331.967 210.153 331.571 210.548C331.212 210.908 330.834 211.412 330.438 212.06C330.078 212.708 329.808 213.517 329.628 214.489C329.448 215.424 329.304 216.558 329.197 217.889C329.089 219.221 329.035 220.786 329.035 222.585ZM359.418 242.071V202.56H376.69C378.309 202.56 379.749 202.776 381.008 203.208C382.268 203.604 383.383 204.269 384.355 205.205C385.362 206.104 386.136 207.382 386.676 209.037C387.215 210.656 387.485 212.6 387.485 214.867C387.485 216.738 387.323 218.375 386.999 219.778C386.676 221.182 386.316 222.261 385.92 223.017C385.524 223.737 384.984 224.384 384.301 224.96C383.617 225.5 383.095 225.842 382.735 225.986C382.376 226.13 381.854 226.31 381.17 226.525L388.673 242.071H380.145L373.613 227.119L366.974 226.363V242.071H359.418ZM367.028 220.426H375.988C376.708 220.426 377.284 220.372 377.716 220.264C378.147 220.12 378.525 219.85 378.849 219.455C379.209 219.059 379.461 218.501 379.605 217.781C379.785 217.026 379.875 216.054 379.875 214.867C379.875 212.744 379.551 211.286 378.903 210.495C378.255 209.667 377.284 209.253 375.988 209.253H367.028V220.426ZM215.573 271.838V268.438C215.573 266.926 215.753 265.577 216.113 264.389C216.473 263.202 216.958 262.23 217.57 261.475C218.182 260.719 218.938 260.107 219.837 259.64C220.773 259.136 221.744 258.794 222.752 258.614C223.795 258.398 224.965 258.272 226.26 258.236C228.995 258.164 231.82 258.29 234.735 258.614C237.649 258.938 239.916 259.334 241.536 259.801V265.739C237.433 265.379 233.025 265.199 228.311 265.199C226.404 265.163 225.055 265.379 224.263 265.847C223.508 266.279 223.13 267.34 223.13 269.031V270.975C223.13 272.486 223.436 273.493 224.047 273.997C224.659 274.501 225.757 274.753 227.34 274.753H233.601C234.537 274.753 235.4 274.843 236.192 275.023C237.02 275.203 237.721 275.455 238.297 275.778C238.909 276.102 239.448 276.48 239.916 276.912C240.42 277.344 240.834 277.829 241.158 278.369C241.518 278.909 241.805 279.467 242.021 280.043C242.273 280.582 242.453 281.158 242.561 281.77C242.705 282.381 242.795 282.975 242.831 283.551C242.903 284.091 242.939 284.648 242.939 285.224V287.869C242.939 289.596 242.723 291.108 242.291 292.403C241.859 293.698 241.302 294.724 240.618 295.48C239.97 296.235 239.143 296.847 238.135 297.315C237.163 297.783 236.192 298.089 235.22 298.232C234.249 298.412 233.187 298.502 232.036 298.502C225.523 298.502 220.431 297.963 216.761 296.883V290.946C220.719 291.342 225.307 291.539 230.524 291.539C231.208 291.539 231.784 291.503 232.252 291.431C232.755 291.359 233.259 291.216 233.763 291C234.303 290.784 234.699 290.442 234.95 289.974C235.238 289.47 235.382 288.859 235.382 288.139V286.034C235.382 284.774 235.13 283.839 234.627 283.227C234.123 282.615 233.187 282.31 231.82 282.31H225.775C218.974 282.274 215.573 278.783 215.573 271.838ZM249.624 298.071V258.56H257.18V298.071H249.624ZM262.908 265.523V258.56H292.109V265.523H281.152V298.071H273.595V265.523H262.908ZM296.685 298.071L310.017 258.56H318.599L331.445 298.071H323.403L320.596 289.326H307.642L304.781 298.071H296.685ZM309.639 282.633H318.815L314.389 268.492L309.639 282.633ZM336.054 298.071L339.509 258.56H350.034L356.619 285.548L363.15 258.56H373.621L377.292 298.071H369.843L367.252 271.676L360.883 298.071H352.463L345.824 271.676L343.503 298.071H336.054ZM384.291 290.298V266.764C384.291 265.433 384.471 264.263 384.831 263.256C385.191 262.248 385.659 261.457 386.235 260.881C386.81 260.305 387.476 259.837 388.232 259.478C389.023 259.082 389.779 258.83 390.499 258.722C391.254 258.614 392.046 258.56 392.874 258.56C402.157 258.812 407.951 259.1 410.254 259.424V265.685H394.655C393.971 265.685 393.431 265.757 393.036 265.901C392.64 266.045 392.352 266.297 392.172 266.656C392.028 267.016 391.938 267.322 391.902 267.574C391.866 267.826 391.848 268.204 391.848 268.708V274.861L407.825 275.401V281.662L391.848 282.148V288.301C391.848 288.985 391.938 289.542 392.118 289.974C392.298 290.37 392.586 290.658 392.982 290.838C393.377 290.982 393.701 291.072 393.953 291.108C394.241 291.108 394.655 291.108 395.195 291.108H410.254V297.315C409.354 297.423 407.501 297.567 404.694 297.747C401.888 297.891 399.297 297.999 396.922 298.071L393.413 298.232C392.586 298.268 391.812 298.25 391.092 298.178C390.373 298.107 389.581 297.909 388.717 297.585C387.854 297.261 387.098 296.829 386.45 296.289C385.839 295.75 385.317 294.976 384.885 293.968C384.489 292.925 384.291 291.701 384.291 290.298ZM415.078 265.523V258.56H444.279V265.523H433.322V298.071H425.766V265.523H415.078Z"></path>
</g>
<defs>
<clipPath id="clip0_962_197">
<rect transform="translate(51 189)" fill="white" height="133.141" width="409.322"></rect>
</clipPath>
</defs>
</svg>