<svg xmlns:xlink="http://www.w3.org/1999/xlink" xmlns="http://www.w3.org/2000/svg" fill="none" viewBox="0 0 512 512" height="512" width="512">
<path fill="#29D3DA" d="M155.003 212.089C142.559 209.624 129.675 210.72 117.82 215.252L117.67 215.315C116.603 215.718 115.562 216.159 114.52 216.575L114.231 216.701C113.177 217.179 112.136 217.683 111.107 218.213L110.831 218.364C109.827 218.88 108.835 219.435 107.844 220.002L107.405 220.279C106.526 220.796 105.673 221.337 104.895 221.892L104.468 222.156C100.718 224.669 97.2253 227.547 94.04 230.75L93.9521 230.85C94.0776 230.548 94.1906 230.246 94.316 229.956L94.3788 229.805C94.9561 228.545 95.6337 227.285 96.2612 226.025C100.167 218.622 105.494 212.07 111.935 206.747C112.286 206.457 112.675 206.167 113.064 205.865L113.855 205.235L114.558 204.731L115.813 203.811C116.453 203.357 117.067 202.929 117.758 202.551H117.833C118.523 202.11 119.213 201.681 119.916 201.291C127.459 196.82 135.858 193.999 144.562 193.013C149.128 198.709 152.662 205.166 155.003 212.089Z"></path>
<path fill="#29D3DA" d="M163.386 283.531C163.474 282.057 163.524 280.583 163.524 279.108C163.524 270.817 162.023 262.594 159.094 254.841V254.715C158.718 253.757 158.341 252.8 157.927 251.867C157.726 251.388 157.501 250.935 157.312 250.506C157.124 250.078 156.961 249.713 156.748 249.246L156.61 248.969L156.346 248.453V248.339V248.276C156.233 248.049 156.12 247.823 155.995 247.596C155.819 247.256 155.643 246.915 155.443 246.575V246.5L155.33 246.323L154.614 245.063V244.988C154.301 244.458 153.974 243.904 153.61 243.337L152.606 241.762L152.054 240.93L151.941 240.767V240.704L151.766 240.464C151.49 240.074 151.214 239.683 150.912 239.28V239.217C150.661 238.864 150.398 238.524 150.122 238.171L149.72 237.654C149.469 237.314 149.206 236.987 148.93 236.659L148.804 236.508C148.503 236.13 148.177 235.739 147.825 235.336C146.721 234.076 145.554 232.816 144.337 231.556L144.274 231.493L145.278 231.921C157.268 237.338 167.271 246.383 173.89 257.789C178.27 265.347 181.023 273.743 181.971 282.435C176.022 286.815 169.342 290.092 162.244 292.112C162.244 291.885 162.319 291.671 162.345 291.482C162.432 291.015 162.52 290.549 162.608 290.058V289.97C162.834 288.546 163.022 287.109 163.16 285.673C163.16 285.257 163.223 284.867 163.248 284.489C163.273 284.111 163.386 283.884 163.386 283.531Z"></path>
<path fill="#29D3DA" d="M143.646 280.583C143.646 280.721 143.533 280.86 143.47 280.986L143.207 281.628C137.808 293.661 128.801 303.7 117.444 310.344C109.906 314.752 101.531 317.525 92.8601 318.483C88.313 312.781 84.7924 306.325 82.457 299.407C94.9025 301.854 107.782 300.759 119.64 296.244C120.644 295.854 121.635 295.438 122.614 294.984L122.827 294.896L124.346 294.203H124.408L125.437 293.712H125.525L125.701 293.624L125.839 293.561L126.492 293.22H126.592H126.667H126.755L127.458 292.842L127.872 292.616H127.96L129.127 291.948L129.303 291.847L129.717 291.595L130.582 291.091L130.783 290.978L131.285 290.663L132.603 289.806C133.004 289.529 133.431 289.239 133.858 288.911H134.523C134.887 288.659 135.238 288.407 135.564 288.155C136.167 287.714 136.744 287.273 137.321 286.82L137.434 286.731L138.35 286.001L138.476 285.9C138.877 285.585 139.254 285.257 139.605 284.955C140.86 283.846 142.115 282.687 143.37 281.452L143.646 280.583Z"></path>
<path fill="#29D3DA" d="M93.9773 280.772L93.2118 280.457L92.9734 280.356C82.8229 275.764 74.0639 268.557 67.5867 259.465C66.4448 257.852 65.353 256.202 64.3616 254.488V254.425C59.9981 246.871 57.2541 238.485 56.3052 229.805C61.9819 225.238 68.4124 221.707 75.3044 219.372C72.849 231.867 73.9405 244.803 78.4542 256.706C80.247 261.463 82.5753 265.999 85.3938 270.225C87.8986 273.992 90.7651 277.503 93.9522 280.709L93.9773 280.772Z"></path>
<path fill="#221ECA" d="M113.629 199.111C104.389 205.337 96.8182 213.751 91.5852 223.612C86.3522 233.472 83.6181 244.474 83.6244 255.647V255.874C83.4863 255.521 83.3232 255.181 83.1977 254.841C78.5435 242.491 77.8417 228.991 81.1898 216.222C83.4139 207.745 87.3903 199.832 92.8604 193C100.085 193.806 107.114 195.874 113.629 199.111Z"></path>
<path fill="#221ECA" d="M181.231 229.767C180.426 237.024 178.366 244.086 175.144 250.632C168.052 240.075 158.171 231.711 146.608 226.478C144.435 225.494 142.21 224.627 139.944 223.883C139.593 223.757 139.254 223.656 138.915 223.555L137.811 223.227H137.711C137.133 223.051 136.569 222.9 136.004 222.749C135.439 222.597 134.824 222.446 134.197 222.308H134.134L132.302 221.904H132.227C131.963 221.904 131.637 221.791 131.248 221.715H131.06H130.821H130.558C130.106 221.631 129.629 221.556 129.127 221.489H129.039C128.613 221.413 128.173 221.35 127.784 221.3L127.107 221.224C126.705 221.161 126.291 221.123 125.852 221.085H125.638C125.162 221.085 124.672 220.985 124.133 220.959C122.451 220.833 120.744 220.77 119.025 220.77H118.912L119.916 220.342C132.22 215.669 145.67 214.964 158.391 218.326C166.707 220.521 174.482 224.416 181.231 229.767Z"></path>
<path fill="#221ECA" d="M158.366 279.134C158.363 293.446 153.493 307.328 144.563 318.483C137.34 317.672 130.313 315.609 123.794 312.385C134.299 305.257 142.624 295.337 147.838 283.733C148.315 282.687 148.754 281.616 149.181 280.532C149.394 279.99 149.582 279.461 149.77 278.957V278.882C149.896 278.504 150.021 278.151 150.134 277.798V277.722V277.596C150.251 277.26 150.352 276.945 150.435 276.651L150.498 276.462C150.649 276.009 150.799 275.53 150.937 275.013V274.95C151.113 274.396 151.251 273.854 151.389 273.312C151.389 273.237 151.465 273.06 151.515 272.834L151.766 271.851V271.637C151.766 271.523 151.841 271.322 151.891 271.057L152.23 269.52V269.369C152.318 268.877 152.431 268.348 152.519 267.794C152.606 267.34 152.669 266.886 152.732 266.534C152.857 265.79 152.945 265.072 153.033 264.341V264.19C153.033 263.799 153.121 263.421 153.171 263.018V262.754C153.171 262.237 153.259 261.72 153.297 261.242C153.422 259.541 153.485 257.827 153.485 256.088V255.572C153.623 255.924 153.774 256.265 153.912 256.617C156.747 263.788 158.257 271.419 158.366 279.134Z"></path>
<path fill="#221ECA" d="M118.849 291.003L117.82 291.431C105.52 296.104 92.0751 296.809 79.3575 293.447C70.9225 291.203 63.0486 287.212 56.2422 281.729C57.0391 274.47 59.0992 267.408 62.3285 260.864C69.4124 271.423 79.291 279.789 90.8524 285.018C95.4739 287.118 100.32 288.678 105.296 289.667C109.72 290.565 114.223 291.017 118.736 291.015L118.849 291.003Z"></path>
<path fill="black" d="M242.047 275.141V281H215.797V224.984H242.047V230.844H222.75V249.164H240.055V254.984H222.75V275.141H242.047ZM268.237 251.547H282.027V280.219C279.891 280.635 277.808 280.961 275.777 281.195C273.745 281.43 271.636 281.547 269.448 281.547C266.402 281.547 263.81 281.143 261.675 280.336C259.54 279.503 257.821 277.992 256.519 275.805C255.217 273.617 254.266 270.622 253.667 266.82C253.094 262.992 252.808 258.096 252.808 252.133C252.808 246.195 253.185 241.43 253.941 237.836C254.696 234.242 255.829 231.443 257.339 229.438C258.876 227.432 260.803 226.104 263.12 225.453C265.464 224.776 268.211 224.438 271.362 224.438C272.743 224.438 274.331 224.555 276.128 224.789C277.925 225.023 279.331 225.284 280.347 225.57V231.312C278.628 231 276.883 230.753 275.112 230.57C273.368 230.388 271.636 230.297 269.917 230.297C268.224 230.297 266.753 230.544 265.503 231.039C264.253 231.508 263.211 232.549 262.378 234.164C261.571 235.753 260.959 238.031 260.542 241C260.126 243.943 259.917 247.836 259.917 252.68C259.917 257.706 260.099 261.742 260.464 264.789C260.829 267.81 261.376 270.128 262.105 271.742C262.86 273.383 263.797 274.464 264.917 274.984C266.063 275.479 267.443 275.727 269.058 275.727C269.969 275.727 270.985 275.674 272.105 275.57C273.224 275.466 274.318 275.323 275.386 275.141V257.406H268.237V251.547ZM321.459 275.141V281H295.209V224.984H321.459V230.844H302.162V249.164H319.467V254.984H302.162V275.141H321.459ZM357.494 265.062C357.494 268.37 357.116 271.091 356.361 273.227C355.606 275.362 354.538 277.042 353.158 278.266C351.778 279.49 350.111 280.349 348.158 280.844C346.205 281.312 344.03 281.547 341.634 281.547C340.358 281.547 338.835 281.443 337.064 281.234C335.319 281.026 333.744 280.74 332.338 280.375V274.516C333.588 274.828 335.033 275.115 336.673 275.375C338.34 275.609 340.254 275.727 342.416 275.727C345.202 275.727 347.22 274.932 348.47 273.344C349.72 271.729 350.345 269.242 350.345 265.883C350.345 262.237 349.877 259.646 348.939 258.109C348.002 256.547 346.309 255.505 343.861 254.984C341.621 254.516 339.733 253.917 338.197 253.188C336.66 252.432 335.41 251.469 334.447 250.297C332.572 248.005 331.634 244.529 331.634 239.867C331.634 237.003 332.012 234.594 332.767 232.641C333.548 230.688 334.655 229.099 336.088 227.875C337.494 226.651 339.147 225.779 341.048 225.258C342.976 224.711 345.085 224.438 347.377 224.438C348.731 224.438 350.189 224.555 351.752 224.789C353.314 225.023 354.694 225.31 355.892 225.648V231.469C354.486 231.156 352.923 230.883 351.205 230.648C349.512 230.414 347.976 230.297 346.595 230.297C344.382 230.297 342.52 231.013 341.009 232.445C339.499 233.878 338.744 236.065 338.744 239.008C338.744 241.065 338.887 242.719 339.173 243.969C339.486 245.193 340.085 246.143 340.97 246.82C341.856 247.471 343.171 247.979 344.916 248.344C346.843 248.734 348.574 249.281 350.111 249.984C351.647 250.661 352.963 251.625 354.056 252.875C355.15 254.125 355.996 255.74 356.595 257.719C357.194 259.698 357.494 262.146 357.494 265.062ZM393.645 224.984V231.078H381.341V281H374.348V231.078H362.044V224.984H393.645ZM415.539 224.984L428.82 281H421.672L418.664 266.859H403.039L399.914 281H392.805L406.32 224.984H415.539ZM404.328 260.844H417.375L410.812 230.297L404.328 260.844ZM462.081 265.062C462.081 268.37 461.704 271.091 460.948 273.227C460.193 275.362 459.126 277.042 457.745 278.266C456.365 279.49 454.698 280.349 452.745 280.844C450.792 281.312 448.618 281.547 446.222 281.547C444.946 281.547 443.422 281.443 441.652 281.234C439.907 281.026 438.331 280.74 436.925 280.375V274.516C438.175 274.828 439.62 275.115 441.261 275.375C442.928 275.609 444.842 275.727 447.003 275.727C449.79 275.727 451.808 274.932 453.058 273.344C454.308 271.729 454.933 269.242 454.933 265.883C454.933 262.237 454.464 259.646 453.527 258.109C452.589 256.547 450.896 255.505 448.448 254.984C446.209 254.516 444.321 253.917 442.784 253.188C441.248 252.432 439.998 251.469 439.034 250.297C437.159 248.005 436.222 244.529 436.222 239.867C436.222 237.003 436.599 234.594 437.355 232.641C438.136 230.688 439.243 229.099 440.675 227.875C442.081 226.651 443.735 225.779 445.636 225.258C447.563 224.711 449.672 224.438 451.964 224.438C453.318 224.438 454.777 224.555 456.339 224.789C457.902 225.023 459.282 225.31 460.48 225.648V231.469C459.073 231.156 457.511 230.883 455.792 230.648C454.099 230.414 452.563 230.297 451.183 230.297C448.969 230.297 447.107 231.013 445.597 232.445C444.086 233.878 443.331 236.065 443.331 239.008C443.331 241.065 443.474 242.719 443.761 243.969C444.073 245.193 444.672 246.143 445.558 246.82C446.443 247.471 447.758 247.979 449.503 248.344C451.43 248.734 453.162 249.281 454.698 249.984C456.235 250.661 457.55 251.625 458.644 252.875C459.738 254.125 460.584 255.74 461.183 257.719C461.782 259.698 462.081 262.146 462.081 265.062Z"></path>
</svg>