<svg xmlns:xlink="http://www.w3.org/1999/xlink" xmlns="http://www.w3.org/2000/svg" fill="none" viewBox="0 0 512 512" height="512" width="512">
<g clip-path="url(#clip0_962_202)">
<g clip-path="url(#clip1_962_202)">
<path fill="#FFC005" d="M122.745 215.359C121.293 221.648 118.09 227.404 113.503 231.967C108.915 236.53 103.129 239.716 96.8069 241.161C95.7044 241.397 94.7159 242.001 94.004 242.871C93.2922 243.741 92.8995 244.827 92.8906 245.949V255.475C92.8907 256.19 93.0482 256.897 93.3521 257.545C93.656 258.193 94.0988 258.767 94.6495 259.226C95.2002 259.686 95.8454 260.02 96.5398 260.205C97.2341 260.39 97.9607 260.421 98.6686 260.297C110.089 258.233 120.532 252.55 128.437 244.096C136.342 235.641 141.285 224.87 142.528 213.39C142.554 213.148 142.528 212.902 142.453 212.67C142.377 212.438 142.254 212.225 142.09 212.043C141.927 211.862 141.727 211.716 141.503 211.616C141.279 211.516 141.037 211.464 140.792 211.463H127.559C126.431 211.472 125.34 211.863 124.465 212.571C123.59 213.279 122.983 214.262 122.745 215.359Z"></path>
<path fill="#FFC005" d="M147.694 288.042C147.667 288.284 147.692 288.529 147.766 288.761C147.84 288.993 147.963 289.207 148.126 289.389C148.289 289.571 148.489 289.716 148.712 289.816C148.935 289.916 149.177 289.968 149.422 289.969H162.655C163.784 289.96 164.876 289.568 165.751 288.858C166.626 288.149 167.232 287.164 167.469 286.065C168.922 279.775 172.126 274.019 176.715 269.456C181.304 264.893 187.091 261.707 193.415 260.264C194.518 260.028 195.508 259.425 196.22 258.555C196.932 257.684 197.324 256.598 197.332 255.475V245.949C197.331 245.234 197.174 244.527 196.87 243.879C196.566 243.231 196.123 242.657 195.573 242.198C195.022 241.738 194.377 241.404 193.682 241.219C192.988 241.034 192.261 241.003 191.554 241.127C183.962 242.482 176.757 245.462 170.437 249.861C165.207 253.487 160.665 258.006 157.02 263.208C151.85 270.569 148.642 279.113 147.694 288.042Z"></path>
<path fill="#221ECA" d="M162.663 211.463H149.422C149.177 211.464 148.935 211.516 148.712 211.616C148.489 211.716 148.289 211.862 148.126 212.043C147.963 212.225 147.84 212.439 147.766 212.671C147.692 212.903 147.667 213.148 147.694 213.39C148.635 222.317 151.841 230.859 157.011 238.216C160.657 243.417 165.2 247.936 170.429 251.563C176.752 255.953 183.956 258.93 191.545 260.289C192.253 260.413 192.98 260.381 193.674 260.196C194.368 260.011 195.014 259.677 195.564 259.218C196.115 258.758 196.558 258.184 196.862 257.536C197.166 256.888 197.323 256.182 197.323 255.467V245.949C197.314 244.827 196.922 243.741 196.21 242.871C195.498 242.001 194.509 241.397 193.407 241.161C187.084 239.716 181.298 236.53 176.711 231.967C172.124 227.404 168.921 221.648 167.469 215.359C167.229 214.264 166.624 213.283 165.751 212.575C164.878 211.867 163.79 211.475 162.663 211.463Z"></path>
<path fill="#221ECA" d="M133.211 263.2C129.566 257.997 125.024 253.479 119.794 249.853C113.474 245.454 106.269 242.473 98.6774 241.119C97.9696 240.995 97.2429 241.026 96.5485 241.211C95.8542 241.396 95.209 241.73 94.6583 242.19C94.1076 242.649 93.6647 243.223 93.3609 243.871C93.057 244.519 92.8995 245.225 92.8994 245.94V255.467C92.9068 256.589 93.2989 257.676 94.011 258.546C94.7231 259.417 95.7125 260.02 96.8157 260.255C103.14 261.697 108.927 264.883 113.515 269.446C118.102 274.009 121.304 279.766 122.754 286.057C122.993 287.155 123.601 288.14 124.477 288.849C125.354 289.559 126.446 289.951 127.576 289.961H140.809C141.054 289.96 141.296 289.908 141.519 289.808C141.742 289.708 141.942 289.562 142.105 289.381C142.268 289.199 142.391 288.985 142.465 288.753C142.539 288.521 142.564 288.276 142.537 288.034C141.589 279.105 138.381 270.56 133.211 263.2Z"></path>
</g>
<path fill="black" d="M238.223 224.048V227.202H229.11V236.914H238.223L239.016 232.948H241.589V240.087H221.564V237.708L224.931 236.914V215.516L221.564 214.722V212.556L229.11 212.343H241.183V219.095H238.61L237.623 215.516H229.11V224.048H238.223ZM270.717 228.788C270.717 232.671 269.898 235.592 268.26 237.553C266.622 239.501 263.81 240.474 259.824 240.474C256.045 240.474 253.349 239.571 251.737 237.766C250.124 235.96 249.318 233.167 249.318 229.388V215.516L245.952 214.722V212.556L257.251 212.343V214.722L253.478 215.516V229.388C253.478 231.374 253.704 232.922 254.155 234.032C254.607 235.141 255.303 235.934 256.245 236.411C257.199 236.876 258.457 237.108 260.018 237.108C261.682 237.108 262.978 236.843 263.907 236.315C264.848 235.786 265.525 234.922 265.938 233.722C266.351 232.522 266.557 230.878 266.557 228.788V215.516L262.784 214.722V212.556L274.083 212.343V214.722L270.717 215.516V228.788ZM290.741 237.708L294.707 236.914V215.516H289.561L288.574 219.482H285.982V212.343H307.593V219.482H305.02L304.014 215.516H298.867V236.914L302.834 237.708V240.087H290.741V237.708ZM334.747 228.788C334.747 232.671 333.928 235.592 332.29 237.553C330.652 239.501 327.84 240.474 323.855 240.474C320.075 240.474 317.379 239.571 315.767 237.766C314.155 235.96 313.349 233.167 313.349 229.388V215.516L309.982 214.722V212.556L321.281 212.343V214.722L317.508 215.516V229.388C317.508 231.374 317.734 232.922 318.186 234.032C318.637 235.141 319.334 235.934 320.275 236.411C321.23 236.876 322.487 237.108 324.048 237.108C325.712 237.108 327.008 236.843 327.937 236.315C328.879 235.786 329.556 234.922 329.968 233.722C330.381 232.522 330.588 230.878 330.588 228.788V215.516L326.815 214.722V212.556L338.114 212.343V214.722L334.747 215.516V228.788ZM345.05 215.516L341.683 214.722V212.556L349.209 212.343H353.563C356.362 212.343 358.548 212.981 360.122 214.258C361.695 215.522 362.482 217.263 362.482 219.482C362.482 223.364 360.767 225.938 357.336 227.202C357.968 227.756 358.761 228.95 359.715 230.781L362.85 237.069L365.655 237.708V240.087H359.715L356.349 232.755C355.717 231.387 355.162 230.381 354.685 229.736C354.208 229.079 353.698 228.627 353.156 228.382C352.615 228.124 351.892 227.995 350.989 227.995H349.209V236.914L352.576 237.708V240.087H341.683V237.708L345.05 236.914V215.516ZM352.189 225.035C354.111 225.035 355.614 224.603 356.697 223.739C357.781 222.861 358.322 221.643 358.322 220.082C358.322 218.766 357.858 217.676 356.929 216.812C356.013 215.948 354.827 215.516 353.369 215.516H349.209V225.035H352.189ZM371.217 215.516L367.851 214.722V212.556L375.377 212.343H379.537C382.465 212.343 384.715 213.071 386.289 214.529C387.863 215.987 388.65 217.966 388.65 220.469C388.65 223.513 387.714 225.828 385.844 227.415C383.987 229.001 381.355 229.794 377.95 229.794H375.377V236.914L378.743 237.708V240.087H367.851V237.708L371.217 236.914V215.516ZM377.95 226.621C380.117 226.621 381.749 226.144 382.845 225.19C383.942 224.235 384.49 222.861 384.49 221.069C384.49 219.43 384.038 218.095 383.135 217.064C382.245 216.032 380.981 215.516 379.343 215.516H375.377V226.621H377.95ZM391.812 237.708L395.179 236.914V215.516L391.812 214.722V212.556L402.705 212.343V214.722L399.339 215.516V236.914L402.705 237.708V240.087H391.812V237.708ZM411.634 236.121C411.737 236.173 411.976 236.282 412.35 236.45C412.724 236.605 413.233 236.753 413.878 236.895C414.523 237.037 415.226 237.108 415.987 237.108C417.574 237.108 418.98 236.734 420.205 235.986C421.443 235.238 422.062 234.199 422.062 232.871C422.062 232.019 421.798 231.31 421.269 230.742C420.74 230.162 420.082 229.691 419.296 229.33C418.522 228.969 417.451 228.537 416.084 228.034C414.291 227.402 412.84 226.808 411.731 226.254C410.634 225.699 409.693 224.899 408.906 223.855C408.132 222.81 407.745 221.468 407.745 219.83C407.745 217.212 408.635 215.245 410.415 213.929C412.208 212.614 414.452 211.956 417.148 211.956C418.257 211.956 419.431 212.078 420.669 212.323C421.908 212.556 422.965 212.801 423.842 213.059C424.719 213.304 425.274 213.465 425.506 213.542L425.313 220.275H422.74L421.385 216.038C421.282 216.012 421.031 215.941 420.631 215.825C420.231 215.696 419.715 215.58 419.083 215.477C418.451 215.374 417.819 215.322 417.187 215.322C415.497 215.322 414.194 215.703 413.278 216.464C412.363 217.212 411.905 218.115 411.905 219.172C411.905 220.024 412.169 220.74 412.698 221.32C413.227 221.888 413.885 222.358 414.672 222.732C415.471 223.107 416.587 223.545 418.019 224.048C419.734 224.654 421.14 225.228 422.237 225.77C423.333 226.312 424.262 227.079 425.023 228.072C425.797 229.053 426.183 230.297 426.183 231.807C426.183 233.703 425.719 235.309 424.79 236.624C423.862 237.927 422.611 238.894 421.037 239.526C419.476 240.158 417.741 240.474 415.832 240.474C414.594 240.474 413.375 240.358 412.176 240.126C410.976 239.894 409.976 239.655 409.177 239.41C408.39 239.152 407.887 238.985 407.668 238.907V231.961H410.841L411.634 236.121ZM245.749 263.102L244.549 266.082L238.416 278.561L235.243 278.755L229.11 265.888L228.104 263.102V282.914L231.877 283.708V286.087H221.177V283.708L224.544 282.914V261.516L221.177 260.722V258.556L230.097 258.343L237.255 274.208L244.743 258.556L253.082 258.343V260.722L249.696 261.516V282.914L253.082 283.708V286.087H241.976V283.708L245.749 282.914V263.102ZM270.291 257.956C272.832 257.956 275.025 258.517 276.87 259.639C278.727 260.761 280.139 262.367 281.107 264.457C282.087 266.546 282.577 269.003 282.577 271.828C282.577 274.704 282.029 277.252 280.933 279.47C279.836 281.689 278.295 283.411 276.308 284.636C274.335 285.862 272.071 286.474 269.517 286.474C265.635 286.474 262.649 285.268 260.559 282.856C258.47 280.444 257.425 276.962 257.425 272.409C257.425 269.532 257.947 266.998 258.992 264.805C260.037 262.612 261.527 260.922 263.462 259.736C265.409 258.549 267.686 257.956 270.291 257.956ZM270.098 261.322C267.454 261.322 265.435 262.212 264.042 263.992C262.662 265.772 261.972 268.513 261.972 272.215C261.972 275.814 262.617 278.529 263.907 280.36C265.209 282.192 267.144 283.108 269.711 283.108C272.355 283.108 274.4 282.179 275.844 280.322C277.302 278.464 278.03 275.698 278.03 272.022C278.03 268.487 277.353 265.824 275.999 264.031C274.657 262.225 272.69 261.322 270.098 261.322ZM303.192 278.368H305.959V286.087H286.746V283.708L290.113 282.914V261.516L286.746 260.722V258.556L297.639 258.343V260.722L294.273 261.516V282.914H302.399L303.192 278.368ZM325.393 270.048V273.202H316.28V282.914H325.393L326.186 278.948H328.76V286.087H308.735V283.708L312.101 282.914V261.516L308.735 260.722V258.556L316.28 258.343H328.353V265.095H325.78L324.793 261.516H316.28V270.048H325.393ZM338.269 282.121C338.372 282.173 338.61 282.282 338.985 282.45C339.359 282.605 339.868 282.753 340.513 282.895C341.158 283.037 341.861 283.108 342.622 283.108C344.208 283.108 345.614 282.734 346.84 281.986C348.078 281.238 348.697 280.199 348.697 278.871C348.697 278.019 348.433 277.31 347.904 276.742C347.375 276.162 346.717 275.691 345.93 275.33C345.156 274.969 344.086 274.537 342.719 274.034C340.926 273.402 339.475 272.808 338.365 272.254C337.269 271.699 336.327 270.899 335.541 269.855C334.767 268.81 334.38 267.468 334.38 265.83C334.38 263.212 335.27 261.245 337.05 259.929C338.843 258.614 341.087 257.956 343.783 257.956C344.892 257.956 346.066 258.078 347.304 258.323C348.542 258.556 349.6 258.801 350.477 259.059C351.354 259.304 351.909 259.465 352.141 259.542L351.948 266.275H349.374L348.02 262.038C347.917 262.012 347.665 261.941 347.265 261.825C346.866 261.696 346.35 261.58 345.718 261.477C345.086 261.374 344.453 261.322 343.821 261.322C342.132 261.322 340.829 261.703 339.913 262.464C338.997 263.212 338.54 264.115 338.54 265.172C338.54 266.024 338.804 266.74 339.333 267.32C339.862 267.888 340.519 268.358 341.306 268.732C342.106 269.107 343.222 269.545 344.653 270.048C346.369 270.654 347.775 271.228 348.871 271.77C349.968 272.312 350.896 273.079 351.657 274.072C352.431 275.053 352.818 276.297 352.818 277.807C352.818 279.703 352.354 281.309 351.425 282.624C350.496 283.927 349.245 284.894 347.672 285.526C346.111 286.158 344.376 286.474 342.467 286.474C341.229 286.474 340.01 286.358 338.81 286.126C337.611 285.894 336.611 285.655 335.811 285.41C335.025 285.152 334.522 284.985 334.302 284.907V277.961H337.475L338.269 282.121ZM360.721 283.708L364.688 282.914V261.516H359.541L358.554 265.482H355.962V258.343H377.573V265.482H375L373.994 261.516H368.847V282.914L372.814 283.708V286.087H360.721V283.708ZM380.156 283.708L383.522 282.914V261.516L380.156 260.722V258.556L391.049 258.343V260.722L387.682 261.516V282.914L391.049 283.708V286.087H380.156V283.708ZM411.876 270.048V273.202H402.763V282.914H411.876L412.669 278.948H415.243V286.087H395.218V283.708L398.584 282.914V261.516L395.218 260.722V258.556L402.763 258.343H414.836V265.095H412.263L411.276 261.516H402.763V270.048H411.876Z"></path>
</g>
<defs>
<clipPath id="clip0_962_202">
<rect transform="translate(71 190)" fill="white" height="122.175" width="370.799"></rect>
</clipPath>
<clipPath id="clip1_962_202">
<rect transform="translate(92.4634 211.463)" fill="white" height="79.2486" width="105.665"></rect>
</clipPath>
</defs>
</svg>