<svg xmlns:xlink="http://www.w3.org/1999/xlink" xmlns="http://www.w3.org/2000/svg" fill="none" viewBox="0 0 512 512" height="512" width="512">
<path fill="#31D4E2" d="M243.923 190.954L251.33 198.321C252.553 199.529 254.203 200.207 255.923 200.207C257.642 200.207 259.292 199.529 260.515 198.321L266.598 192.279L267.879 190.921L303.47 155.3C303.768 155.004 303.97 154.625 304.053 154.213C304.135 153.801 304.093 153.374 303.932 152.986C303.771 152.598 303.499 152.266 303.149 152.033C302.8 151.8 302.389 151.676 301.969 151.677H289.461C287.472 151.673 285.501 152.062 283.662 152.82C281.823 153.578 280.151 154.691 278.741 156.095L255.923 178.937L248.372 171.382C246.994 170.005 245.359 168.912 243.559 168.168C241.76 167.423 239.831 167.04 237.884 167.041H220.132L243.978 190.898L243.923 190.954Z"></path>
<path fill="#31D4E2" d="M267.911 223.448L260.515 216.103C259.293 214.889 257.64 214.207 255.917 214.207C254.194 214.207 252.541 214.889 251.319 216.103L245.236 222.145L243.956 223.504L208.353 259.124C208.055 259.421 207.853 259.799 207.771 260.211C207.688 260.623 207.73 261.05 207.891 261.438C208.052 261.826 208.324 262.158 208.674 262.391C209.024 262.624 209.434 262.748 209.854 262.747H222.506C226.443 262.742 230.217 261.177 233.004 258.395L255.923 235.465L263.363 242.91C266.217 245.748 270.081 247.337 274.105 247.328H291.768L267.923 223.47L267.911 223.448Z"></path>
<path fill="#221ECA" d="M227.683 207.201L220.198 214.69C218.8 216.085 217.69 217.743 216.932 219.568C216.174 221.393 215.784 223.35 215.783 225.326V242.998L239.628 219.13L247.003 211.696C248.219 210.475 248.903 208.821 248.903 207.096C248.903 205.372 248.219 203.717 247.003 202.496L203.948 159.508C203.653 159.214 203.278 159.013 202.869 158.932C202.46 158.85 202.036 158.892 201.651 159.052C201.266 159.211 200.937 159.481 200.705 159.828C200.473 160.175 200.35 160.582 200.349 160.999V173.58C200.341 175.566 200.727 177.534 201.485 179.369C202.243 181.204 203.358 182.871 204.765 184.271L227.683 207.201Z"></path>
<path fill="#221ECA" d="M307.058 230.097L284.283 207.201L291.889 199.657C294.628 196.906 296.164 193.18 296.162 189.297V171.371L272.371 195.239L265.096 202.595C263.899 203.816 263.228 205.458 263.228 207.168C263.228 208.878 263.899 210.52 265.096 211.741L272.405 219.262L307.897 254.883C308.185 255.171 308.553 255.366 308.953 255.446C309.352 255.525 309.767 255.484 310.143 255.328C310.52 255.172 310.842 254.908 311.069 254.57C311.296 254.231 311.417 253.832 311.418 253.425V240.69C311.424 238.724 311.042 236.776 310.294 234.959C309.545 233.141 308.446 231.489 307.058 230.097Z"></path>
<path fill="black" d="M88.883 307.346H100.504V343.895H109.25V307.346H120.871V300.286H88.883V307.346ZM170.424 321.966C170.424 308.908 160.553 299.662 148.12 299.662C135.812 299.662 125.753 308.908 125.753 321.966C125.753 335.086 135.812 344.332 148.12 344.332C160.49 344.332 170.424 335.086 170.424 321.966ZM134.75 321.966C134.75 313.094 140.186 307.534 148.12 307.534C155.992 307.534 161.428 313.094 161.428 321.966C161.428 330.837 155.992 336.523 148.12 336.523C140.186 336.523 134.75 330.837 134.75 321.966ZM200.673 313.844C200.673 317.78 198.486 320.341 193.613 320.341H186.303V307.534H193.613C198.486 307.534 200.673 309.97 200.673 313.844ZM177.556 300.286V343.895H186.303V326.901H190.427L200.048 343.895H210.169L199.736 326.214C206.733 324.34 209.669 318.967 209.669 313.656C209.669 306.347 204.421 300.286 193.925 300.286H177.556ZM225.078 321.966C225.078 313.094 230.513 307.534 238.448 307.534C246.32 307.534 251.755 313.094 251.755 321.966C251.755 330.837 246.32 336.523 238.448 336.523C230.513 336.523 225.078 330.837 225.078 321.966ZM260.752 321.966C260.752 308.908 250.88 299.662 238.448 299.662C226.14 299.662 216.081 308.908 216.081 321.966C216.081 335.086 226.14 344.332 238.448 344.332C240.384 344.332 242.321 344.082 244.07 343.645L250.693 351.58H261.564L251.568 340.334C257.128 336.398 260.752 329.9 260.752 321.966ZM267.881 327.214C267.881 338.709 275.753 344.332 285.312 344.332C294.871 344.332 303.118 338.709 303.118 327.214V300.286H294.308V327.276C294.308 333.274 291.06 336.398 285.437 336.398C279.876 336.398 276.628 333.274 276.628 327.276V300.286H267.881V327.214ZM337.496 300.224H312.193V343.895H337.496V336.773H320.94V325.215H335.622V318.28H320.94V307.346H337.496V300.224ZM374.622 300.224V330.213L354.817 300.224H346.07V343.895H354.817V313.969L374.622 343.895H383.368V300.224H374.622ZM390.325 307.346H401.946V343.895H410.693V307.346H422.313V300.286H390.325V307.346Z"></path>
</svg>